<svg xmlns="http://www.w3.org/2000/svg" xmlns:xlink="http://www.w3.org/1999/xlink" width="150" zoomAndPan="magnify" viewBox="0 0 112.5 56.249996" height="75" preserveAspectRatio="xMidYMid meet" version="1.0"><defs><g/><clipPath id="16b43cd179"><path d="M 79.199219 16.925781 L 93.527344 16.925781 L 93.527344 35.890625 L 79.199219 35.890625 Z M 79.199219 16.925781 " clip-rule="nonzero"/></clipPath><clipPath id="1c0039cd0a"><path d="M 86.148438 35.703125 C 83.386719 36.515625 81.175781 33.925781 80.175781 31.621094 C 79.175781 29.316406 79.027344 26.679688 79.480469 24.230469 C 80.019531 21.304688 82.25 16.039062 86.035156 17.101562 C 86.726562 18.65625 87.0625 20.226562 87.039062 21.785156 C 87.011719 23.371094 86.617188 24.480469 86.203125 25.65625 C 85.84375 26.660156 85.476562 27.699219 85.300781 29.109375 C 85.042969 31.207031 85.328125 33.417969 86.148438 35.703125 Z M 93.246094 24.230469 C 92.703125 21.292969 90.460938 16.003906 86.648438 17.113281 C 87.300781 18.664062 87.621094 20.234375 87.59375 21.792969 C 87.566406 23.472656 87.160156 24.625 86.726562 25.84375 C 86.378906 26.820312 86.019531 27.828125 85.855469 29.175781 C 85.597656 31.261719 85.902344 33.46875 86.761719 35.753906 C 89.4375 36.402344 91.570312 33.875 92.550781 31.621094 C 93.546875 29.316406 93.699219 26.679688 93.246094 24.230469 Z M 93.246094 24.230469 " clip-rule="nonzero"/></clipPath></defs><g clip-path="url(#16b43cd179)"><g clip-path="url(#1c0039cd0a)"><path fill="#ffffff" d="M 79.234375 16.960938 L 93.488281 16.960938 L 93.488281 35.851562 L 79.234375 35.851562 Z M 79.234375 16.960938 " fill-opacity="1" fill-rule="nonzero"/></g></g><g fill="#ffffff" fill-opacity="1"><g transform="translate(12.400514, 35.809163)"><g><path d="M 14.53125 -4.671875 C 14.726562 -5.191406 14.929688 -5.753906 15.140625 -6.359375 C 15.359375 -6.960938 15.566406 -7.585938 15.765625 -8.234375 C 15.972656 -8.878906 16.171875 -9.53125 16.359375 -10.1875 C 16.554688 -10.851562 16.734375 -11.507812 16.890625 -12.15625 L 15.59375 -16.390625 C 15.5 -16.679688 15.503906 -16.9375 15.609375 -17.15625 C 15.710938 -17.375 15.875 -17.554688 16.09375 -17.703125 C 16.320312 -17.847656 16.585938 -17.957031 16.890625 -18.03125 C 17.191406 -18.101562 17.515625 -18.140625 17.859375 -18.140625 C 18.148438 -18.140625 18.410156 -18.125 18.640625 -18.09375 C 18.867188 -18.0625 19.070312 -18.003906 19.25 -17.921875 C 19.425781 -17.835938 19.570312 -17.722656 19.6875 -17.578125 C 19.800781 -17.429688 19.894531 -17.242188 19.96875 -17.015625 L 23.796875 -4.6875 C 23.992188 -5.238281 24.203125 -5.832031 24.421875 -6.46875 C 24.648438 -7.113281 24.867188 -7.773438 25.078125 -8.453125 C 25.296875 -9.128906 25.503906 -9.8125 25.703125 -10.5 C 25.898438 -11.195312 26.070312 -11.878906 26.21875 -12.546875 C 26.363281 -13.210938 26.476562 -13.847656 26.5625 -14.453125 C 26.644531 -15.066406 26.6875 -15.628906 26.6875 -16.140625 C 26.6875 -16.722656 26.644531 -17.207031 26.5625 -17.59375 C 26.488281 -17.988281 26.398438 -18.316406 26.296875 -18.578125 C 26.191406 -18.847656 26.097656 -19.066406 26.015625 -19.234375 C 25.941406 -19.398438 25.90625 -19.554688 25.90625 -19.703125 C 25.90625 -19.890625 25.953125 -20.046875 26.046875 -20.171875 C 26.140625 -20.296875 26.257812 -20.398438 26.40625 -20.484375 C 26.5625 -20.578125 26.726562 -20.644531 26.90625 -20.6875 C 27.082031 -20.726562 27.253906 -20.75 27.421875 -20.75 C 27.773438 -20.75 28.078125 -20.695312 28.328125 -20.59375 C 28.578125 -20.488281 28.75 -20.304688 28.84375 -20.046875 C 28.882812 -19.910156 28.921875 -19.769531 28.953125 -19.625 C 28.984375 -19.476562 29.003906 -19.332031 29.015625 -19.1875 C 29.023438 -19.050781 29.03125 -18.921875 29.03125 -18.796875 C 29.03125 -18.679688 29.03125 -18.59375 29.03125 -18.53125 C 29.03125 -18.15625 28.96875 -17.640625 28.84375 -16.984375 C 28.726562 -16.335938 28.566406 -15.609375 28.359375 -14.796875 C 28.148438 -13.984375 27.910156 -13.109375 27.640625 -12.171875 C 27.378906 -11.242188 27.101562 -10.304688 26.8125 -9.359375 C 26.519531 -8.410156 26.226562 -7.484375 25.9375 -6.578125 C 25.644531 -5.671875 25.367188 -4.832031 25.109375 -4.0625 C 24.847656 -3.289062 24.613281 -2.613281 24.40625 -2.03125 C 24.207031 -1.445312 24.054688 -1.015625 23.953125 -0.734375 C 23.878906 -0.515625 23.78125 -0.34375 23.65625 -0.21875 C 23.539062 -0.101562 23.40625 -0.015625 23.25 0.046875 C 23.09375 0.117188 22.921875 0.164062 22.734375 0.1875 C 22.554688 0.207031 22.367188 0.21875 22.171875 0.21875 C 21.816406 0.21875 21.523438 0.179688 21.296875 0.109375 C 21.078125 0.0351562 20.898438 -0.0507812 20.765625 -0.15625 C 20.628906 -0.257812 20.53125 -0.375 20.46875 -0.5 C 20.40625 -0.625 20.359375 -0.738281 20.328125 -0.84375 L 17.671875 -9.5625 C 17.378906 -8.59375 17.082031 -7.640625 16.78125 -6.703125 C 16.476562 -5.765625 16.191406 -4.898438 15.921875 -4.109375 C 15.648438 -3.316406 15.40625 -2.625 15.1875 -2.03125 C 14.976562 -1.4375 14.816406 -1.003906 14.703125 -0.734375 C 14.609375 -0.515625 14.492188 -0.34375 14.359375 -0.21875 C 14.234375 -0.101562 14.09375 -0.015625 13.9375 0.046875 C 13.78125 0.117188 13.613281 0.164062 13.4375 0.1875 C 13.257812 0.207031 13.078125 0.21875 12.890625 0.21875 C 12.535156 0.21875 12.242188 0.179688 12.015625 0.109375 C 11.796875 0.0351562 11.617188 -0.0507812 11.484375 -0.15625 C 11.347656 -0.257812 11.242188 -0.375 11.171875 -0.5 C 11.109375 -0.625 11.0625 -0.738281 11.03125 -0.84375 L 6.28125 -16.703125 C 6.1875 -17.003906 6.085938 -17.257812 5.984375 -17.46875 C 5.890625 -17.6875 5.769531 -17.859375 5.625 -17.984375 C 5.476562 -18.117188 5.300781 -18.21875 5.09375 -18.28125 C 4.882812 -18.34375 4.628906 -18.375 4.328125 -18.375 C 4.078125 -18.375 3.785156 -18.3125 3.453125 -18.1875 C 3.117188 -18.070312 2.800781 -17.894531 2.5 -17.65625 C 2.207031 -17.425781 1.957031 -17.132812 1.75 -16.78125 C 1.550781 -16.425781 1.453125 -16.019531 1.453125 -15.5625 C 1.453125 -15.28125 1.488281 -15.050781 1.5625 -14.875 C 1.644531 -14.707031 1.734375 -14.582031 1.828125 -14.5 C 1.921875 -14.414062 2.019531 -14.363281 2.125 -14.34375 C 2.226562 -14.320312 2.300781 -14.3125 2.34375 -14.3125 C 2.570312 -14.3125 2.753906 -14.347656 2.890625 -14.421875 C 3.035156 -14.492188 3.164062 -14.570312 3.28125 -14.65625 C 3.394531 -14.75 3.503906 -14.832031 3.609375 -14.90625 C 3.710938 -14.976562 3.828125 -15.015625 3.953125 -15.015625 C 4.066406 -15.015625 4.179688 -14.988281 4.296875 -14.9375 C 4.421875 -14.894531 4.53125 -14.816406 4.625 -14.703125 C 4.726562 -14.597656 4.816406 -14.457031 4.890625 -14.28125 C 4.960938 -14.113281 5 -13.90625 5 -13.65625 C 5 -13.300781 4.929688 -12.992188 4.796875 -12.734375 C 4.660156 -12.472656 4.484375 -12.253906 4.265625 -12.078125 C 4.046875 -11.910156 3.796875 -11.785156 3.515625 -11.703125 C 3.234375 -11.617188 2.957031 -11.578125 2.6875 -11.578125 C 2.257812 -11.578125 1.878906 -11.648438 1.546875 -11.796875 C 1.210938 -11.953125 0.929688 -12.15625 0.703125 -12.40625 C 0.472656 -12.664062 0.296875 -12.96875 0.171875 -13.3125 C 0.0546875 -13.65625 0 -14.023438 0 -14.421875 C 0 -15.335938 0.175781 -16.140625 0.53125 -16.828125 C 0.882812 -17.523438 1.351562 -18.101562 1.9375 -18.5625 C 2.53125 -19.019531 3.195312 -19.363281 3.9375 -19.59375 C 4.6875 -19.820312 5.457031 -19.9375 6.25 -19.9375 C 7.144531 -19.9375 7.875 -19.800781 8.4375 -19.53125 C 9.007812 -19.257812 9.46875 -18.910156 9.8125 -18.484375 C 10.164062 -18.054688 10.445312 -17.578125 10.65625 -17.046875 C 10.863281 -16.515625 11.046875 -15.992188 11.203125 -15.484375 Z M 14.53125 -4.671875 "/></g></g></g><g fill="#ffffff" fill-opacity="1"><g transform="translate(41.192445, 35.809163)"><g><path d="M 7.671875 -6.90625 C 7.671875 -7.125 7.597656 -7.289062 7.453125 -7.40625 C 7.304688 -7.53125 7.125 -7.59375 6.90625 -7.59375 C 6.59375 -7.59375 6.296875 -7.519531 6.015625 -7.375 C 5.734375 -7.226562 5.488281 -7.015625 5.28125 -6.734375 C 5.070312 -6.460938 4.90625 -6.125 4.78125 -5.71875 C 4.65625 -5.320312 4.59375 -4.859375 4.59375 -4.328125 C 4.59375 -3.804688 4.628906 -3.375 4.703125 -3.03125 C 4.773438 -2.695312 4.875 -2.429688 5 -2.234375 C 5.132812 -2.035156 5.285156 -1.894531 5.453125 -1.8125 C 5.617188 -1.726562 5.796875 -1.6875 5.984375 -1.6875 C 6.210938 -1.6875 6.429688 -1.742188 6.640625 -1.859375 C 6.847656 -1.984375 7.023438 -2.140625 7.171875 -2.328125 C 7.328125 -2.515625 7.445312 -2.722656 7.53125 -2.953125 C 7.625 -3.191406 7.671875 -3.425781 7.671875 -3.65625 Z M 5.546875 -12.75 C 5.242188 -12.75 4.960938 -12.710938 4.703125 -12.640625 C 4.453125 -12.566406 4.234375 -12.476562 4.046875 -12.375 C 3.859375 -12.269531 3.707031 -12.148438 3.59375 -12.015625 C 3.488281 -11.890625 3.4375 -11.769531 3.4375 -11.65625 C 3.4375 -11.519531 3.503906 -11.421875 3.640625 -11.359375 C 3.785156 -11.304688 3.941406 -11.242188 4.109375 -11.171875 C 4.273438 -11.097656 4.425781 -10.988281 4.5625 -10.84375 C 4.707031 -10.707031 4.78125 -10.5 4.78125 -10.21875 C 4.78125 -10.03125 4.738281 -9.859375 4.65625 -9.703125 C 4.582031 -9.546875 4.476562 -9.40625 4.34375 -9.28125 C 4.21875 -9.164062 4.066406 -9.070312 3.890625 -9 C 3.722656 -8.9375 3.546875 -8.90625 3.359375 -8.90625 C 2.859375 -8.90625 2.453125 -9.070312 2.140625 -9.40625 C 1.835938 -9.75 1.6875 -10.203125 1.6875 -10.765625 C 1.6875 -11.304688 1.828125 -11.769531 2.109375 -12.15625 C 2.398438 -12.539062 2.773438 -12.859375 3.234375 -13.109375 C 3.691406 -13.359375 4.207031 -13.539062 4.78125 -13.65625 C 5.363281 -13.78125 5.941406 -13.84375 6.515625 -13.84375 C 7.210938 -13.84375 7.875 -13.765625 8.5 -13.609375 C 9.132812 -13.460938 9.691406 -13.222656 10.171875 -12.890625 C 10.660156 -12.566406 11.050781 -12.148438 11.34375 -11.640625 C 11.632812 -11.128906 11.78125 -10.515625 11.78125 -9.796875 L 11.78125 -2.265625 C 11.78125 -2.179688 11.78125 -2.09375 11.78125 -2 C 11.789062 -1.90625 11.8125 -1.816406 11.84375 -1.734375 C 11.882812 -1.648438 11.941406 -1.582031 12.015625 -1.53125 C 12.085938 -1.476562 12.191406 -1.453125 12.328125 -1.453125 C 12.484375 -1.453125 12.628906 -1.507812 12.765625 -1.625 C 12.898438 -1.75 13.023438 -1.875 13.140625 -2 L 13.46875 -1.71875 C 13.332031 -1.53125 13.171875 -1.328125 12.984375 -1.109375 C 12.796875 -0.890625 12.566406 -0.679688 12.296875 -0.484375 C 12.035156 -0.285156 11.726562 -0.117188 11.375 0.015625 C 11.019531 0.148438 10.613281 0.21875 10.15625 0.21875 C 9.601562 0.21875 9.109375 0.0507812 8.671875 -0.28125 C 8.234375 -0.613281 7.945312 -1.128906 7.8125 -1.828125 C 7.53125 -1.441406 7.234375 -1.117188 6.921875 -0.859375 C 6.617188 -0.609375 6.304688 -0.398438 5.984375 -0.234375 C 5.671875 -0.078125 5.347656 0.0351562 5.015625 0.109375 C 4.691406 0.179688 4.367188 0.21875 4.046875 0.21875 C 3.617188 0.21875 3.203125 0.148438 2.796875 0.015625 C 2.398438 -0.117188 2.039062 -0.328125 1.71875 -0.609375 C 1.40625 -0.898438 1.15625 -1.273438 0.96875 -1.734375 C 0.78125 -2.203125 0.6875 -2.769531 0.6875 -3.4375 C 0.6875 -4.25 0.84375 -4.910156 1.15625 -5.421875 C 1.476562 -5.941406 1.898438 -6.375 2.421875 -6.71875 C 2.941406 -7.070312 3.53125 -7.375 4.1875 -7.625 C 4.851562 -7.875 5.535156 -8.140625 6.234375 -8.421875 C 6.742188 -8.617188 7.113281 -8.921875 7.34375 -9.328125 C 7.582031 -9.734375 7.703125 -10.148438 7.703125 -10.578125 C 7.703125 -11.234375 7.507812 -11.757812 7.125 -12.15625 C 6.738281 -12.550781 6.210938 -12.75 5.546875 -12.75 Z M 5.546875 -12.75 "/></g></g></g><g fill="#ffffff" fill-opacity="1"><g transform="translate(54.821942, 35.809163)"><g><path d="M 5.921875 -11.03125 C 6.253906 -11.539062 6.613281 -12.003906 7 -12.421875 C 7.15625 -12.609375 7.328125 -12.785156 7.515625 -12.953125 C 7.703125 -13.117188 7.894531 -13.269531 8.09375 -13.40625 C 8.300781 -13.539062 8.507812 -13.644531 8.71875 -13.71875 C 8.9375 -13.800781 9.148438 -13.84375 9.359375 -13.84375 C 9.816406 -13.84375 10.171875 -13.707031 10.421875 -13.4375 C 10.679688 -13.164062 10.8125 -12.785156 10.8125 -12.296875 C 10.8125 -11.992188 10.785156 -11.703125 10.734375 -11.421875 C 10.691406 -11.140625 10.597656 -10.800781 10.453125 -10.40625 L 10.078125 -10.40625 C 10.023438 -10.675781 9.898438 -10.898438 9.703125 -11.078125 C 9.515625 -11.265625 9.234375 -11.359375 8.859375 -11.359375 C 8.578125 -11.359375 8.300781 -11.304688 8.03125 -11.203125 C 7.769531 -11.109375 7.507812 -10.984375 7.25 -10.828125 C 7 -10.679688 6.757812 -10.515625 6.53125 -10.328125 C 6.3125 -10.148438 6.109375 -9.984375 5.921875 -9.828125 L 5.921875 -1.171875 C 5.921875 -1.054688 5.898438 -0.914062 5.859375 -0.75 C 5.828125 -0.59375 5.742188 -0.441406 5.609375 -0.296875 C 5.472656 -0.160156 5.269531 -0.0390625 5 0.0625 C 4.726562 0.164062 4.351562 0.21875 3.875 0.21875 C 3.40625 0.21875 3.035156 0.160156 2.765625 0.046875 C 2.492188 -0.0664062 2.285156 -0.195312 2.140625 -0.34375 C 2.003906 -0.5 1.914062 -0.65625 1.875 -0.8125 C 1.84375 -0.96875 1.828125 -1.097656 1.828125 -1.203125 L 1.828125 -11.5 C 1.828125 -11.75 1.765625 -11.96875 1.640625 -12.15625 C 1.523438 -12.351562 1.328125 -12.453125 1.046875 -12.453125 C 0.890625 -12.453125 0.757812 -12.425781 0.65625 -12.375 C 0.550781 -12.320312 0.4375 -12.25 0.3125 -12.15625 L 0.03125 -12.484375 C 0.226562 -12.648438 0.453125 -12.816406 0.703125 -12.984375 C 0.960938 -13.148438 1.238281 -13.296875 1.53125 -13.421875 C 1.820312 -13.546875 2.132812 -13.644531 2.46875 -13.71875 C 2.8125 -13.800781 3.171875 -13.84375 3.546875 -13.84375 C 3.929688 -13.84375 4.257812 -13.789062 4.53125 -13.6875 C 4.800781 -13.582031 5.019531 -13.445312 5.1875 -13.28125 C 5.363281 -13.125 5.5 -12.941406 5.59375 -12.734375 C 5.695312 -12.523438 5.769531 -12.316406 5.8125 -12.109375 C 5.863281 -11.898438 5.894531 -11.703125 5.90625 -11.515625 C 5.914062 -11.328125 5.921875 -11.164062 5.921875 -11.03125 Z M 5.921875 -11.03125 "/></g></g></g><g fill="#ffffff" fill-opacity="1"><g transform="translate(65.690992, 35.809163)"><g><path d="M 9.0625 -7.234375 C 9.0625 -7.335938 9.0625 -7.535156 9.0625 -7.828125 C 9.0625 -8.128906 9.050781 -8.472656 9.03125 -8.859375 C 9.019531 -9.242188 8.988281 -9.65625 8.9375 -10.09375 C 8.894531 -10.53125 8.828125 -10.9375 8.734375 -11.3125 C 8.523438 -11.582031 8.285156 -11.828125 8.015625 -12.046875 C 7.753906 -12.265625 7.421875 -12.375 7.015625 -12.375 C 6.316406 -12.375 5.804688 -11.921875 5.484375 -11.015625 C 5.160156 -10.109375 5 -8.703125 5 -6.796875 C 5 -5.960938 5.035156 -5.195312 5.109375 -4.5 C 5.191406 -3.8125 5.304688 -3.21875 5.453125 -2.71875 C 5.609375 -2.21875 5.804688 -1.828125 6.046875 -1.546875 C 6.296875 -1.273438 6.59375 -1.140625 6.9375 -1.140625 C 8.351562 -1.140625 9.0625 -3.171875 9.0625 -7.234375 Z M 8.90625 -13.109375 C 8.738281 -13.992188 8.503906 -14.820312 8.203125 -15.59375 C 7.898438 -16.363281 7.535156 -17.03125 7.109375 -17.59375 C 6.691406 -18.15625 6.210938 -18.59375 5.671875 -18.90625 C 5.140625 -19.226562 4.5625 -19.390625 3.9375 -19.390625 C 3.582031 -19.390625 3.257812 -19.34375 2.96875 -19.25 C 2.675781 -19.164062 2.421875 -19.0625 2.203125 -18.9375 C 1.992188 -18.820312 1.820312 -18.707031 1.6875 -18.59375 C 1.550781 -18.488281 1.453125 -18.40625 1.390625 -18.34375 L 1.046875 -18.8125 C 1.253906 -19.09375 1.507812 -19.351562 1.8125 -19.59375 C 2.125 -19.832031 2.460938 -20.035156 2.828125 -20.203125 C 3.191406 -20.367188 3.578125 -20.5 3.984375 -20.59375 C 4.390625 -20.695312 4.789062 -20.75 5.1875 -20.75 C 6.5 -20.75 7.65625 -20.460938 8.65625 -19.890625 C 9.65625 -19.316406 10.488281 -18.503906 11.15625 -17.453125 C 11.820312 -16.410156 12.320312 -15.144531 12.65625 -13.65625 C 12.988281 -12.164062 13.15625 -10.515625 13.15625 -8.703125 C 13.15625 -7.242188 13.003906 -5.957031 12.703125 -4.84375 C 12.410156 -3.726562 11.988281 -2.796875 11.4375 -2.046875 C 10.882812 -1.296875 10.210938 -0.726562 9.421875 -0.34375 C 8.640625 0.03125 7.757812 0.21875 6.78125 0.21875 C 6.09375 0.21875 5.394531 0.0976562 4.6875 -0.140625 C 3.976562 -0.390625 3.335938 -0.789062 2.765625 -1.34375 C 2.191406 -1.894531 1.722656 -2.617188 1.359375 -3.515625 C 0.992188 -4.410156 0.8125 -5.503906 0.8125 -6.796875 C 0.8125 -7.921875 0.96875 -8.914062 1.28125 -9.78125 C 1.601562 -10.65625 2.03125 -11.390625 2.5625 -11.984375 C 3.09375 -12.585938 3.707031 -13.046875 4.40625 -13.359375 C 5.113281 -13.679688 5.859375 -13.84375 6.640625 -13.84375 C 6.941406 -13.84375 7.210938 -13.816406 7.453125 -13.765625 C 7.691406 -13.722656 7.898438 -13.664062 8.078125 -13.59375 C 8.253906 -13.519531 8.410156 -13.441406 8.546875 -13.359375 C 8.679688 -13.273438 8.800781 -13.191406 8.90625 -13.109375 Z M 8.90625 -13.109375 "/></g></g></g><g fill="#ffffff" fill-opacity="1"><g transform="translate(79.763712, 35.809163)"><g/></g></g><g fill="#ffffff" fill-opacity="1"><g transform="translate(85.938677, 35.809163)"><g/></g></g><g fill="#ffffff" fill-opacity="1"><g transform="translate(92.116866, 35.809163)"><g><path d="M 5.78125 -1.171875 C 5.78125 -1.054688 5.757812 -0.914062 5.71875 -0.75 C 5.6875 -0.59375 5.597656 -0.441406 5.453125 -0.296875 C 5.304688 -0.160156 5.09375 -0.0390625 4.8125 0.0625 C 4.53125 0.164062 4.15625 0.21875 3.6875 0.21875 C 3.207031 0.21875 2.832031 0.160156 2.5625 0.046875 C 2.300781 -0.0664062 2.101562 -0.195312 1.96875 -0.34375 C 1.84375 -0.5 1.765625 -0.65625 1.734375 -0.8125 C 1.703125 -0.96875 1.6875 -1.097656 1.6875 -1.203125 L 1.6875 -18.40625 C 1.6875 -18.664062 1.625 -18.890625 1.5 -19.078125 C 1.382812 -19.265625 1.1875 -19.359375 0.90625 -19.359375 C 0.757812 -19.359375 0.628906 -19.332031 0.515625 -19.28125 C 0.398438 -19.238281 0.28125 -19.171875 0.15625 -19.078125 L -0.109375 -19.390625 C 0.0976562 -19.554688 0.328125 -19.722656 0.578125 -19.890625 C 0.828125 -20.054688 1.097656 -20.203125 1.390625 -20.328125 C 1.691406 -20.453125 2.007812 -20.550781 2.34375 -20.625 C 2.6875 -20.707031 3.046875 -20.75 3.421875 -20.75 C 3.992188 -20.75 4.4375 -20.671875 4.75 -20.515625 C 5.070312 -20.359375 5.304688 -20.164062 5.453125 -19.9375 C 5.609375 -19.71875 5.703125 -19.476562 5.734375 -19.21875 C 5.765625 -18.96875 5.78125 -18.742188 5.78125 -18.546875 Z M 5.78125 -1.171875 "/></g></g></g><g fill="#ffffff" fill-opacity="1"><g transform="translate(41.900161, 43.866474)"><g><path d="M 0.140625 -0.953125 L 0.140625 -1.1875 L 1.1875 -1.1875 L 1.1875 -0.953125 Z M 0.140625 -0.953125 "/></g></g></g><g fill="#ffffff" fill-opacity="1"><g transform="translate(43.27706, 43.866474)"><g><path d="M 3.640625 -3 C 3.578125 -3 3.523438 -2.972656 3.484375 -2.921875 C 3.441406 -2.867188 3.414062 -2.8125 3.40625 -2.75 L 2.5625 0.015625 L 1.84375 -2.25 L 1.125 0.015625 L 0.28125 -2.75 C 0.269531 -2.800781 0.242188 -2.851562 0.203125 -2.90625 C 0.160156 -2.96875 0.113281 -3 0.0625 -3 L 0.0625 -3.046875 L 0.71875 -3.046875 L 0.71875 -3 C 0.675781 -3 0.640625 -2.984375 0.609375 -2.953125 C 0.585938 -2.921875 0.578125 -2.878906 0.578125 -2.828125 C 0.578125 -2.804688 0.582031 -2.785156 0.59375 -2.765625 L 1.1875 -0.8125 L 1.921875 -3.0625 L 2.625 -0.8125 L 3.234375 -2.765625 C 3.234375 -2.773438 3.234375 -2.785156 3.234375 -2.796875 C 3.242188 -2.816406 3.25 -2.835938 3.25 -2.859375 C 3.25 -2.898438 3.238281 -2.929688 3.21875 -2.953125 C 3.195312 -2.984375 3.171875 -3 3.140625 -3 L 3.140625 -3.046875 L 3.640625 -3.046875 Z M 3.640625 -3 "/></g></g></g><g fill="#ffffff" fill-opacity="1"><g transform="translate(46.9933, 43.866474)"><g><path d="M 1.421875 0 L 1.421875 -0.234375 L 1.40625 -0.21875 C 1.320312 -0.132812 1.226562 -0.0703125 1.125 -0.03125 C 1.03125 0.0078125 0.914062 0.03125 0.78125 0.03125 C 0.664062 0.03125 0.566406 0.0195312 0.484375 0 C 0.410156 -0.03125 0.347656 -0.0664062 0.296875 -0.109375 C 0.253906 -0.148438 0.222656 -0.195312 0.203125 -0.25 C 0.179688 -0.3125 0.171875 -0.378906 0.171875 -0.453125 C 0.171875 -0.554688 0.195312 -0.644531 0.25 -0.71875 C 0.3125 -0.800781 0.394531 -0.875 0.5 -0.9375 C 0.601562 -1 0.734375 -1.054688 0.890625 -1.109375 C 1.046875 -1.160156 1.222656 -1.207031 1.421875 -1.25 C 1.421875 -1.375 1.394531 -1.472656 1.34375 -1.546875 C 1.300781 -1.617188 1.25 -1.675781 1.1875 -1.71875 C 1.132812 -1.757812 1.078125 -1.785156 1.015625 -1.796875 C 0.953125 -1.816406 0.894531 -1.828125 0.84375 -1.828125 C 0.769531 -1.828125 0.703125 -1.8125 0.640625 -1.78125 C 0.578125 -1.757812 0.523438 -1.726562 0.484375 -1.6875 C 0.441406 -1.644531 0.40625 -1.601562 0.375 -1.5625 C 0.34375 -1.519531 0.316406 -1.476562 0.296875 -1.4375 L 0.25 -1.4375 L 0.25 -1.78125 C 0.28125 -1.78125 0.304688 -1.785156 0.328125 -1.796875 C 0.347656 -1.804688 0.375 -1.816406 0.40625 -1.828125 C 0.445312 -1.847656 0.503906 -1.875 0.578125 -1.90625 C 0.660156 -1.945312 0.773438 -1.96875 0.921875 -1.96875 C 1.097656 -1.96875 1.238281 -1.945312 1.34375 -1.90625 C 1.445312 -1.863281 1.523438 -1.804688 1.578125 -1.734375 C 1.628906 -1.660156 1.664062 -1.578125 1.6875 -1.484375 C 1.707031 -1.398438 1.71875 -1.3125 1.71875 -1.21875 L 1.71875 -0.296875 C 1.71875 -0.234375 1.726562 -0.175781 1.75 -0.125 C 1.78125 -0.0703125 1.820312 -0.046875 1.875 -0.046875 L 1.875 0 Z M 1.421875 -0.4375 L 1.421875 -1.09375 L 1.375 -1.09375 C 1.300781 -1.070312 1.210938 -1.046875 1.109375 -1.015625 C 1.003906 -0.984375 0.898438 -0.941406 0.796875 -0.890625 C 0.703125 -0.847656 0.617188 -0.789062 0.546875 -0.71875 C 0.484375 -0.65625 0.453125 -0.578125 0.453125 -0.484375 C 0.453125 -0.390625 0.492188 -0.304688 0.578125 -0.234375 C 0.660156 -0.171875 0.765625 -0.140625 0.890625 -0.140625 C 0.992188 -0.140625 1.082031 -0.160156 1.15625 -0.203125 C 1.238281 -0.253906 1.3125 -0.3125 1.375 -0.375 Z M 1.421875 -0.4375 "/></g></g></g><g fill="#ffffff" fill-opacity="1"><g transform="translate(49.102394, 43.866474)"><g><path d="M 1.328125 -1.59375 C 1.296875 -1.65625 1.257812 -1.691406 1.21875 -1.703125 C 1.175781 -1.722656 1.128906 -1.734375 1.078125 -1.734375 C 1.046875 -1.734375 1.007812 -1.722656 0.96875 -1.703125 C 0.925781 -1.691406 0.882812 -1.675781 0.84375 -1.65625 C 0.8125 -1.632812 0.78125 -1.609375 0.75 -1.578125 C 0.71875 -1.546875 0.6875 -1.519531 0.65625 -1.5 L 0.65625 -0.296875 C 0.65625 -0.273438 0.65625 -0.25 0.65625 -0.21875 C 0.664062 -0.1875 0.675781 -0.15625 0.6875 -0.125 C 0.707031 -0.101562 0.722656 -0.0820312 0.734375 -0.0625 C 0.753906 -0.0507812 0.78125 -0.046875 0.8125 -0.046875 L 0.8125 0 L 0.203125 0 L 0.203125 -0.046875 C 0.222656 -0.046875 0.242188 -0.0507812 0.265625 -0.0625 C 0.285156 -0.0820312 0.300781 -0.101562 0.3125 -0.125 C 0.332031 -0.15625 0.34375 -0.1875 0.34375 -0.21875 C 0.351562 -0.25 0.359375 -0.273438 0.359375 -0.296875 L 0.359375 -1.578125 C 0.359375 -1.617188 0.34375 -1.660156 0.3125 -1.703125 C 0.28125 -1.753906 0.238281 -1.785156 0.1875 -1.796875 L 0.1875 -1.828125 L 0.65625 -1.96875 L 0.65625 -1.6875 C 0.6875 -1.726562 0.71875 -1.765625 0.75 -1.796875 C 0.78125 -1.828125 0.8125 -1.851562 0.84375 -1.875 C 0.882812 -1.90625 0.925781 -1.925781 0.96875 -1.9375 C 1.019531 -1.957031 1.078125 -1.96875 1.140625 -1.96875 C 1.179688 -1.96875 1.234375 -1.957031 1.296875 -1.9375 C 1.367188 -1.914062 1.425781 -1.894531 1.46875 -1.875 Z M 1.328125 -1.59375 "/></g></g></g><g fill="#ffffff" fill-opacity="1"><g transform="translate(50.658886, 43.866474)"><g><path d="M 1.171875 0.03125 C 1.015625 0.03125 0.875 0.00390625 0.75 -0.046875 C 0.632812 -0.0976562 0.53125 -0.164062 0.4375 -0.25 C 0.351562 -0.332031 0.285156 -0.429688 0.234375 -0.546875 C 0.191406 -0.671875 0.171875 -0.804688 0.171875 -0.953125 C 0.171875 -1.109375 0.195312 -1.242188 0.25 -1.359375 C 0.300781 -1.484375 0.375 -1.59375 0.46875 -1.6875 C 0.5625 -1.78125 0.671875 -1.847656 0.796875 -1.890625 C 0.921875 -1.941406 1.054688 -1.96875 1.203125 -1.96875 C 1.347656 -1.96875 1.484375 -1.941406 1.609375 -1.890625 C 1.734375 -1.847656 1.835938 -1.78125 1.921875 -1.6875 C 2.015625 -1.601562 2.082031 -1.503906 2.125 -1.390625 C 2.175781 -1.273438 2.203125 -1.144531 2.203125 -1 C 2.203125 -0.863281 2.179688 -0.734375 2.140625 -0.609375 C 2.097656 -0.484375 2.03125 -0.375 1.9375 -0.28125 C 1.851562 -0.1875 1.742188 -0.109375 1.609375 -0.046875 C 1.484375 0.00390625 1.335938 0.03125 1.171875 0.03125 Z M 1.140625 -1.8125 C 1.035156 -1.8125 0.941406 -1.785156 0.859375 -1.734375 C 0.773438 -1.679688 0.703125 -1.617188 0.640625 -1.546875 C 0.585938 -1.472656 0.546875 -1.390625 0.515625 -1.296875 C 0.484375 -1.203125 0.46875 -1.101562 0.46875 -1 C 0.46875 -0.882812 0.484375 -0.773438 0.515625 -0.671875 C 0.554688 -0.566406 0.609375 -0.472656 0.671875 -0.390625 C 0.742188 -0.304688 0.820312 -0.238281 0.90625 -0.1875 C 1 -0.144531 1.101562 -0.125 1.21875 -0.125 C 1.332031 -0.125 1.429688 -0.144531 1.515625 -0.1875 C 1.609375 -0.238281 1.679688 -0.300781 1.734375 -0.375 C 1.796875 -0.457031 1.84375 -0.546875 1.875 -0.640625 C 1.90625 -0.742188 1.921875 -0.84375 1.921875 -0.9375 C 1.921875 -1.039062 1.90625 -1.144531 1.875 -1.25 C 1.84375 -1.351562 1.789062 -1.445312 1.71875 -1.53125 C 1.65625 -1.613281 1.578125 -1.679688 1.484375 -1.734375 C 1.390625 -1.785156 1.273438 -1.8125 1.140625 -1.8125 Z M 1.140625 -1.8125 "/></g></g></g><g fill="#ffffff" fill-opacity="1"><g transform="translate(53.071912, 43.866474)"><g><path d="M 0.453125 -0.9375 C 0.472656 -0.820312 0.5 -0.71875 0.53125 -0.625 C 0.570312 -0.53125 0.625 -0.445312 0.6875 -0.375 C 0.757812 -0.300781 0.84375 -0.238281 0.9375 -0.1875 C 1.03125 -0.144531 1.140625 -0.125 1.265625 -0.125 C 1.335938 -0.125 1.410156 -0.132812 1.484375 -0.15625 C 1.554688 -0.175781 1.625 -0.203125 1.6875 -0.234375 C 1.757812 -0.273438 1.816406 -0.320312 1.859375 -0.375 C 1.910156 -0.425781 1.945312 -0.488281 1.96875 -0.5625 L 2.015625 -0.5625 L 2.015625 -0.21875 C 1.992188 -0.21875 1.972656 -0.207031 1.953125 -0.1875 C 1.929688 -0.175781 1.90625 -0.160156 1.875 -0.140625 C 1.8125 -0.109375 1.726562 -0.0703125 1.625 -0.03125 C 1.519531 0.0078125 1.378906 0.03125 1.203125 0.03125 C 1.066406 0.03125 0.9375 0.0078125 0.8125 -0.03125 C 0.6875 -0.0703125 0.578125 -0.132812 0.484375 -0.21875 C 0.390625 -0.300781 0.3125 -0.40625 0.25 -0.53125 C 0.195312 -0.65625 0.171875 -0.804688 0.171875 -0.984375 C 0.171875 -1.097656 0.1875 -1.210938 0.21875 -1.328125 C 0.257812 -1.453125 0.316406 -1.5625 0.390625 -1.65625 C 0.472656 -1.75 0.578125 -1.820312 0.703125 -1.875 C 0.828125 -1.9375 0.972656 -1.96875 1.140625 -1.96875 C 1.296875 -1.96875 1.429688 -1.941406 1.546875 -1.890625 C 1.660156 -1.835938 1.753906 -1.765625 1.828125 -1.671875 C 1.910156 -1.578125 1.96875 -1.46875 2 -1.34375 C 2.039062 -1.21875 2.0625 -1.082031 2.0625 -0.9375 Z M 1.125 -1.8125 C 1.019531 -1.8125 0.925781 -1.789062 0.84375 -1.75 C 0.769531 -1.707031 0.703125 -1.648438 0.640625 -1.578125 C 0.585938 -1.515625 0.546875 -1.4375 0.515625 -1.34375 C 0.484375 -1.257812 0.460938 -1.175781 0.453125 -1.09375 L 1.78125 -1.09375 C 1.769531 -1.1875 1.75 -1.273438 1.71875 -1.359375 C 1.695312 -1.441406 1.660156 -1.515625 1.609375 -1.578125 C 1.554688 -1.648438 1.488281 -1.707031 1.40625 -1.75 C 1.320312 -1.789062 1.226562 -1.8125 1.125 -1.8125 Z M 1.125 -1.8125 "/></g></g></g><g fill="#ffffff" fill-opacity="1"><g transform="translate(55.309947, 43.866474)"><g><path d="M 2.0625 -0.296875 C 2.0625 -0.273438 2.0625 -0.25 2.0625 -0.21875 C 2.070312 -0.1875 2.082031 -0.15625 2.09375 -0.125 C 2.113281 -0.101562 2.128906 -0.0820312 2.140625 -0.0625 C 2.160156 -0.0507812 2.179688 -0.046875 2.203125 -0.046875 L 2.203125 0 L 1.609375 0 L 1.609375 -0.046875 C 1.628906 -0.046875 1.648438 -0.0507812 1.671875 -0.0625 C 1.691406 -0.0820312 1.707031 -0.101562 1.71875 -0.125 C 1.738281 -0.15625 1.75 -0.1875 1.75 -0.21875 C 1.757812 -0.25 1.765625 -0.273438 1.765625 -0.296875 L 1.765625 -1.15625 C 1.765625 -1.269531 1.75 -1.367188 1.71875 -1.453125 C 1.6875 -1.535156 1.644531 -1.601562 1.59375 -1.65625 C 1.539062 -1.707031 1.476562 -1.742188 1.40625 -1.765625 C 1.34375 -1.796875 1.28125 -1.8125 1.21875 -1.8125 C 1.144531 -1.8125 1.070312 -1.796875 1 -1.765625 C 0.9375 -1.742188 0.878906 -1.707031 0.828125 -1.65625 C 0.785156 -1.613281 0.742188 -1.5625 0.703125 -1.5 C 0.671875 -1.445312 0.65625 -1.390625 0.65625 -1.328125 L 0.65625 -0.296875 C 0.65625 -0.273438 0.660156 -0.25 0.671875 -0.21875 C 0.679688 -0.1875 0.691406 -0.15625 0.703125 -0.125 C 0.710938 -0.101562 0.726562 -0.0820312 0.75 -0.0625 C 0.769531 -0.0507812 0.789062 -0.046875 0.8125 -0.046875 L 0.8125 0 L 0.21875 0 L 0.21875 -0.046875 C 0.238281 -0.046875 0.253906 -0.0507812 0.265625 -0.0625 C 0.285156 -0.0820312 0.300781 -0.101562 0.3125 -0.125 C 0.332031 -0.15625 0.34375 -0.1875 0.34375 -0.21875 C 0.351562 -0.25 0.359375 -0.273438 0.359375 -0.296875 L 0.359375 -1.578125 C 0.359375 -1.628906 0.347656 -1.675781 0.328125 -1.71875 C 0.316406 -1.769531 0.273438 -1.796875 0.203125 -1.796875 L 0.203125 -1.84375 L 0.65625 -1.984375 L 0.65625 -1.734375 C 0.6875 -1.753906 0.71875 -1.78125 0.75 -1.8125 C 0.78125 -1.84375 0.816406 -1.867188 0.859375 -1.890625 C 0.910156 -1.921875 0.96875 -1.941406 1.03125 -1.953125 C 1.09375 -1.972656 1.171875 -1.984375 1.265625 -1.984375 C 1.398438 -1.984375 1.519531 -1.957031 1.625 -1.90625 C 1.726562 -1.863281 1.8125 -1.800781 1.875 -1.71875 C 1.9375 -1.644531 1.984375 -1.5625 2.015625 -1.46875 C 2.046875 -1.375 2.0625 -1.28125 2.0625 -1.1875 Z M 2.0625 -0.296875 "/></g></g></g><g fill="#ffffff" fill-opacity="1"><g transform="translate(57.764417, 43.866474)"><g><path d="M 1.171875 0.859375 C 1.253906 0.859375 1.335938 0.847656 1.421875 0.828125 C 1.503906 0.816406 1.578125 0.796875 1.640625 0.765625 C 1.710938 0.734375 1.765625 0.691406 1.796875 0.640625 C 1.835938 0.597656 1.859375 0.554688 1.859375 0.515625 C 1.859375 0.460938 1.832031 0.414062 1.78125 0.375 C 1.726562 0.34375 1.65625 0.3125 1.5625 0.28125 C 1.476562 0.25 1.378906 0.222656 1.265625 0.203125 C 1.160156 0.191406 1.046875 0.171875 0.921875 0.140625 L 0.6875 0.109375 C 0.613281 0.160156 0.5625 0.21875 0.53125 0.28125 C 0.507812 0.34375 0.5 0.394531 0.5 0.4375 C 0.5 0.507812 0.515625 0.566406 0.546875 0.609375 C 0.578125 0.660156 0.625 0.703125 0.6875 0.734375 C 0.75 0.773438 0.816406 0.804688 0.890625 0.828125 C 0.972656 0.847656 1.066406 0.859375 1.171875 0.859375 Z M 1.421875 -0.0625 C 1.546875 -0.0390625 1.644531 -0.015625 1.71875 0.015625 C 1.800781 0.046875 1.867188 0.0820312 1.921875 0.125 C 1.972656 0.164062 2.003906 0.207031 2.015625 0.25 C 2.035156 0.300781 2.046875 0.359375 2.046875 0.421875 C 2.046875 0.523438 2.015625 0.613281 1.953125 0.6875 C 1.898438 0.769531 1.828125 0.832031 1.734375 0.875 C 1.648438 0.925781 1.550781 0.960938 1.4375 0.984375 C 1.320312 1.015625 1.203125 1.03125 1.078125 1.03125 C 0.960938 1.03125 0.847656 1.019531 0.734375 1 C 0.628906 0.976562 0.535156 0.941406 0.453125 0.890625 C 0.378906 0.847656 0.316406 0.789062 0.265625 0.71875 C 0.210938 0.65625 0.1875 0.578125 0.1875 0.484375 C 0.1875 0.398438 0.210938 0.320312 0.265625 0.25 C 0.316406 0.175781 0.394531 0.109375 0.5 0.046875 C 0.394531 -0.015625 0.3125 -0.09375 0.25 -0.1875 C 0.195312 -0.28125 0.171875 -0.375 0.171875 -0.46875 C 0.171875 -0.53125 0.179688 -0.585938 0.203125 -0.640625 C 0.234375 -0.703125 0.28125 -0.753906 0.34375 -0.796875 C 0.289062 -0.859375 0.253906 -0.921875 0.234375 -0.984375 C 0.210938 -1.046875 0.203125 -1.113281 0.203125 -1.1875 C 0.203125 -1.289062 0.222656 -1.390625 0.265625 -1.484375 C 0.316406 -1.585938 0.378906 -1.671875 0.453125 -1.734375 C 0.535156 -1.804688 0.628906 -1.863281 0.734375 -1.90625 C 0.847656 -1.945312 0.96875 -1.96875 1.09375 -1.96875 C 1.21875 -1.96875 1.335938 -1.941406 1.453125 -1.890625 C 1.566406 -1.847656 1.664062 -1.796875 1.75 -1.734375 L 2.078125 -1.734375 L 2.078125 -1.5625 L 1.875 -1.5625 C 1.894531 -1.519531 1.914062 -1.460938 1.9375 -1.390625 C 1.957031 -1.328125 1.96875 -1.265625 1.96875 -1.203125 C 1.96875 -1.109375 1.941406 -1.015625 1.890625 -0.921875 C 1.847656 -0.835938 1.785156 -0.757812 1.703125 -0.6875 C 1.617188 -0.625 1.523438 -0.570312 1.421875 -0.53125 C 1.316406 -0.5 1.203125 -0.484375 1.078125 -0.484375 C 0.960938 -0.484375 0.847656 -0.5 0.734375 -0.53125 C 0.628906 -0.5625 0.535156 -0.609375 0.453125 -0.671875 C 0.421875 -0.648438 0.398438 -0.625 0.390625 -0.59375 C 0.378906 -0.5625 0.375 -0.53125 0.375 -0.5 C 0.375 -0.394531 0.414062 -0.316406 0.5 -0.265625 C 0.59375 -0.210938 0.707031 -0.175781 0.84375 -0.15625 Z M 1.03125 -1.8125 C 0.957031 -1.8125 0.890625 -1.796875 0.828125 -1.765625 C 0.765625 -1.742188 0.707031 -1.707031 0.65625 -1.65625 C 0.601562 -1.613281 0.5625 -1.554688 0.53125 -1.484375 C 0.507812 -1.421875 0.5 -1.347656 0.5 -1.265625 C 0.5 -1.160156 0.519531 -1.066406 0.5625 -0.984375 C 0.601562 -0.910156 0.65625 -0.847656 0.71875 -0.796875 C 0.78125 -0.742188 0.847656 -0.703125 0.921875 -0.671875 C 1.003906 -0.648438 1.082031 -0.640625 1.15625 -0.640625 C 1.226562 -0.640625 1.296875 -0.648438 1.359375 -0.671875 C 1.421875 -0.703125 1.472656 -0.742188 1.515625 -0.796875 C 1.566406 -0.847656 1.601562 -0.90625 1.625 -0.96875 C 1.65625 -1.039062 1.671875 -1.113281 1.671875 -1.1875 C 1.671875 -1.28125 1.648438 -1.363281 1.609375 -1.4375 C 1.578125 -1.519531 1.53125 -1.585938 1.46875 -1.640625 C 1.40625 -1.691406 1.332031 -1.734375 1.25 -1.765625 C 1.175781 -1.796875 1.101562 -1.8125 1.03125 -1.8125 Z M 1.03125 -1.8125 "/></g></g></g><g fill="#ffffff" fill-opacity="1"><g transform="translate(60.048502, 43.866474)"><g/></g></g><g fill="#ffffff" fill-opacity="1"><g transform="translate(61.250411, 43.866474)"><g><path d="M 0.203125 -0.046875 L 0.21875 -0.046875 C 0.25 -0.046875 0.269531 -0.0507812 0.28125 -0.0625 C 0.300781 -0.0820312 0.316406 -0.101562 0.328125 -0.125 C 0.347656 -0.15625 0.359375 -0.1875 0.359375 -0.21875 C 0.367188 -0.25 0.375 -0.273438 0.375 -0.296875 L 0.375 -2.75 C 0.375 -2.769531 0.367188 -2.796875 0.359375 -2.828125 C 0.359375 -2.859375 0.347656 -2.882812 0.328125 -2.90625 C 0.316406 -2.9375 0.300781 -2.957031 0.28125 -2.96875 C 0.269531 -2.988281 0.25 -3 0.21875 -3 L 0.203125 -3 L 0.203125 -3.046875 L 1.09375 -3.046875 C 1.332031 -3.046875 1.546875 -3 1.734375 -2.90625 C 1.929688 -2.820312 2.097656 -2.707031 2.234375 -2.5625 C 2.367188 -2.425781 2.472656 -2.265625 2.546875 -2.078125 C 2.617188 -1.898438 2.65625 -1.707031 2.65625 -1.5 C 2.65625 -1.3125 2.617188 -1.128906 2.546875 -0.953125 C 2.484375 -0.773438 2.382812 -0.613281 2.25 -0.46875 C 2.113281 -0.332031 1.941406 -0.21875 1.734375 -0.125 C 1.535156 -0.0390625 1.300781 0 1.03125 0 L 0.203125 0 Z M 2.34375 -1.4375 C 2.34375 -1.632812 2.304688 -1.820312 2.234375 -2 C 2.160156 -2.175781 2.0625 -2.328125 1.9375 -2.453125 C 1.8125 -2.585938 1.660156 -2.691406 1.484375 -2.765625 C 1.304688 -2.835938 1.117188 -2.875 0.921875 -2.875 L 0.6875 -2.875 L 0.6875 -0.15625 L 0.921875 -0.15625 C 1.085938 -0.15625 1.253906 -0.179688 1.421875 -0.234375 C 1.585938 -0.285156 1.738281 -0.363281 1.875 -0.46875 C 2.007812 -0.570312 2.117188 -0.703125 2.203125 -0.859375 C 2.296875 -1.023438 2.34375 -1.21875 2.34375 -1.4375 Z M 2.34375 -1.4375 "/></g></g></g><g fill="#ffffff" fill-opacity="1"><g transform="translate(64.0917, 43.866474)"><g><path d="M 1.171875 0.03125 C 1.015625 0.03125 0.875 0.00390625 0.75 -0.046875 C 0.632812 -0.0976562 0.53125 -0.164062 0.4375 -0.25 C 0.351562 -0.332031 0.285156 -0.429688 0.234375 -0.546875 C 0.191406 -0.671875 0.171875 -0.804688 0.171875 -0.953125 C 0.171875 -1.109375 0.195312 -1.242188 0.25 -1.359375 C 0.300781 -1.484375 0.375 -1.59375 0.46875 -1.6875 C 0.5625 -1.78125 0.671875 -1.847656 0.796875 -1.890625 C 0.921875 -1.941406 1.054688 -1.96875 1.203125 -1.96875 C 1.347656 -1.96875 1.484375 -1.941406 1.609375 -1.890625 C 1.734375 -1.847656 1.835938 -1.78125 1.921875 -1.6875 C 2.015625 -1.601562 2.082031 -1.503906 2.125 -1.390625 C 2.175781 -1.273438 2.203125 -1.144531 2.203125 -1 C 2.203125 -0.863281 2.179688 -0.734375 2.140625 -0.609375 C 2.097656 -0.484375 2.03125 -0.375 1.9375 -0.28125 C 1.851562 -0.1875 1.742188 -0.109375 1.609375 -0.046875 C 1.484375 0.00390625 1.335938 0.03125 1.171875 0.03125 Z M 1.140625 -1.8125 C 1.035156 -1.8125 0.941406 -1.785156 0.859375 -1.734375 C 0.773438 -1.679688 0.703125 -1.617188 0.640625 -1.546875 C 0.585938 -1.472656 0.546875 -1.390625 0.515625 -1.296875 C 0.484375 -1.203125 0.46875 -1.101562 0.46875 -1 C 0.46875 -0.882812 0.484375 -0.773438 0.515625 -0.671875 C 0.554688 -0.566406 0.609375 -0.472656 0.671875 -0.390625 C 0.742188 -0.304688 0.820312 -0.238281 0.90625 -0.1875 C 1 -0.144531 1.101562 -0.125 1.21875 -0.125 C 1.332031 -0.125 1.429688 -0.144531 1.515625 -0.1875 C 1.609375 -0.238281 1.679688 -0.300781 1.734375 -0.375 C 1.796875 -0.457031 1.84375 -0.546875 1.875 -0.640625 C 1.90625 -0.742188 1.921875 -0.84375 1.921875 -0.9375 C 1.921875 -1.039062 1.90625 -1.144531 1.875 -1.25 C 1.84375 -1.351562 1.789062 -1.445312 1.71875 -1.53125 C 1.65625 -1.613281 1.578125 -1.679688 1.484375 -1.734375 C 1.390625 -1.785156 1.273438 -1.8125 1.140625 -1.8125 Z M 1.140625 -1.8125 "/></g></g></g><g fill="#ffffff" fill-opacity="1"><g transform="translate(66.504726, 43.866474)"><g><path d="M 0.21875 0 L 0.21875 -0.046875 C 0.25 -0.046875 0.269531 -0.0507812 0.28125 -0.0625 C 0.300781 -0.0820312 0.316406 -0.101562 0.328125 -0.125 C 0.347656 -0.15625 0.359375 -0.1875 0.359375 -0.21875 C 0.367188 -0.25 0.375 -0.273438 0.375 -0.296875 L 0.375 -2.65625 C 0.375 -2.707031 0.363281 -2.753906 0.34375 -2.796875 C 0.332031 -2.847656 0.289062 -2.875 0.21875 -2.875 L 0.21875 -2.921875 L 0.6875 -3.0625 L 0.6875 -0.296875 C 0.6875 -0.273438 0.6875 -0.25 0.6875 -0.21875 C 0.695312 -0.1875 0.707031 -0.15625 0.71875 -0.125 C 0.726562 -0.101562 0.742188 -0.0820312 0.765625 -0.0625 C 0.785156 -0.0507812 0.804688 -0.046875 0.828125 -0.046875 L 0.828125 0 Z M 0.21875 0 "/></g></g></g><g fill="#ffffff" fill-opacity="1"><g transform="translate(67.573088, 43.866474)"><g><path d="M 0.265625 0 L 0.265625 -0.046875 C 0.296875 -0.046875 0.316406 -0.0507812 0.328125 -0.0625 C 0.347656 -0.0820312 0.363281 -0.101562 0.375 -0.125 C 0.394531 -0.15625 0.40625 -0.1875 0.40625 -0.21875 C 0.414062 -0.25 0.421875 -0.273438 0.421875 -0.296875 L 0.421875 -1.578125 C 0.421875 -1.628906 0.410156 -1.675781 0.390625 -1.71875 C 0.378906 -1.769531 0.335938 -1.796875 0.265625 -1.796875 L 0.265625 -1.84375 L 0.71875 -1.984375 L 0.71875 -0.296875 C 0.71875 -0.273438 0.71875 -0.25 0.71875 -0.21875 C 0.726562 -0.1875 0.738281 -0.15625 0.75 -0.125 C 0.769531 -0.101562 0.785156 -0.0820312 0.796875 -0.0625 C 0.816406 -0.0507812 0.84375 -0.046875 0.875 -0.046875 L 0.875 0 Z M 0.296875 -2.4375 C 0.296875 -2.5 0.316406 -2.550781 0.359375 -2.59375 C 0.398438 -2.632812 0.453125 -2.65625 0.515625 -2.65625 C 0.578125 -2.65625 0.628906 -2.632812 0.671875 -2.59375 C 0.710938 -2.550781 0.734375 -2.5 0.734375 -2.4375 C 0.734375 -2.375 0.710938 -2.320312 0.671875 -2.28125 C 0.628906 -2.238281 0.578125 -2.21875 0.515625 -2.21875 C 0.453125 -2.21875 0.398438 -2.238281 0.359375 -2.28125 C 0.316406 -2.320312 0.296875 -2.375 0.296875 -2.4375 Z M 0.296875 -2.4375 "/></g></g></g><g fill="#ffffff" fill-opacity="1"><g transform="translate(68.733552, 43.866474)"><g><path d="M 0.140625 -0.953125 L 0.140625 -1.1875 L 1.1875 -1.1875 L 1.1875 -0.953125 Z M 0.140625 -0.953125 "/></g></g></g></svg>